<svg xmlns="http://www.w3.org/2000/svg" fill-rule="evenodd" stroke-miterlimit="1.414" viewBox="0 0 119 40" clip-rule="evenodd" stroke-linejoin="round"><path d="M91.747 2.87l.16.1.19.136.17.16.01.006.15.174.13.19.09.146.11.26.05.196.03.153.02.13.01.11.01.1v.23l-.01.14v.14l-.02.14-.01.15-.02.15-.02.16-.02.17-.02.17-.02.18-.03.19-.03.2-.04.2-.03.21-.04.22-.04.23-.02.13v.12l.01.19.01.2.01.2.01.21.02.21.01.22.02.22.02.22.02.23.02.23.02.23.02.24.03.25.02.25.03.25.03.25.03.26.03.26.03.27.03.27.04.27.03.27.04.27.04.28.04.28.04.28.04.29.05.29.04.29.05.29.04.29.05.3.05.3.06.3.05.29.05.3.06.3.05.3.06.3.06.3.06.3.06.3.06.3.07.3.06.3.07.3.07.3.07.3.07.3.07.3.07.3.07.3.08.3.07.29.08.3.08.29.08.29.08.29.08.29.08.28.08.29.09.28.09.28.08.28.09.28.09.27.09.27.09.27.09.26.1.26.09.26.1.25.09.25.1.25.1.25.09.24.1.24.1.23.1.23.11.23.1.22.1.21.1.21.06.1.05.1.05.1.05.1.05.1.06.1.05.09.05.09.05.09.06.1.05.09.05.09.05.09.06.09.05.09.05.08.06.08.05.08.05.08.05.08.05.08.06.08.05.07.05.07.05.06.05.06.05.06.06.06.05.06.05.06.05.05.05.06.05.05.05.05.04.05.05.05.05.05.05.05.04.04.05.04.05.04.04.03.01.01.01.01h.01l.02.01.01.01.01.01.02.01h.01l.02.01.01.01.02.01.02.01.02.01.02.01.02.01h.09l.03.01.03.01h.03l.03.01.03.01h.03l.04.01h.15l.04.01h.27l.05-.01h.1l.05-.01.06-.01.05-.01.06-.01.05-.01.06-.01.06-.01.06-.01.06-.02.06-.01.06-.02.07-.02.06-.02.06-.02.07-.02.06-.03.07-.02.07-.03.07-.03.07-.03.06-.03.08-.03.07-.04.07-.03.07-.03.07-.03.07-.04.07-.04.08-.04.07-.04.08-.04.07-.04.08-.05.07-.04.08-.04.07-.05.08-.05.08-.05.07-.05.08-.05.08-.05.08-.06.08-.06.07-.05.08-.06.08-.06.08-.06.08-.06.08-.06.08-.07.07-.06.08-.07.08-.06.08-.07.08-.07.08-.07.08-.07.08-.074.08-.08.08-.08.08-.08.07-.08.08-.08.08-.08.08-.08.08-.08.08-.09.08-.09.07-.09.08-.09.08-.09.07-.1.08-.09.08-.1.08-.1.07-.09.08-.1.07-.1.08-.1.07-.1.08-.1.07-.11.05-.06-.01-.04-.1-.4-.1-.4-.09-.4-.09-.4-.1-.41-.09-.41-.09-.41-.09-.42-.09-.42-.09-.42-.09-.42-.09-.424-.08-.43-.09-.43-.08-.43-.09-.43-.08-.43-.08-.43-.08-.43-.08-.43-.08-.43-.08-.43-.08-.43-.07-.43-.08-.43-.15-.85-.14-.85-.14-.834-.13-.83-.13-.81-.13-.8-.12-.78-.12-.76-.11-.73-.11-.71-.1-.69-.09-.67-.09-.64-.09-.6-.08-.58-.07-.54-.07-.5-.12-.89-.09-.72-.07-.53-.05-.44-.02-.33.04-.33.1-.32.15-.29.19-.27.24-.23.27-.19.31-.15.32-.09.33-.04.33.02.33.08 4.47 1.42 1.15.99.14 1.51-.01.02-.98 1.16-1.52.14h-.01l-1.46-.47.06.45.08.57.09.6.09.62.09.66.1.69.11.7.11.73.11.75.12.77.13.78.12.8.14.81.13.824.15.83.14.84.08.42.07.42.08.42.07.42.08.42.08.43.08.42.08.43.08.43.08.42.09.42.08.41.08.42.09.42.08.41.09.41.09.4.09.41.08.4.09.39.09.4.09.39.09.39.1.38.05.22.12-.01.23-.03.22-.03.22-.02.22-.02.21-.02.21-.01.2-.01.2-.01.2-.01h.57l.18.008.18.01.18.01.17.02.17.02.17.02.17.02.16.03.16.03.16.03.16.04.16.04.15.04.15.05.08.03.08.03.07.03.07.03.08.03.07.04.07.04.07.03.08.04.07.04.07.04.07.04.06.04.07.04.07.04.07.05.06.04.07.05.06.04.07.06.06.05.06.056.06.05.06.06.05.06.06.06.05.06.06.06.05.07.05.06.05.066.05.07.04.06.05.07.04.07.04.07.04.07.03.07.04.07.03.07.04.08.03.08.05.135.05.14.04.15.04.15.03.15.02.14.02.14.01.14.01.14v.27l-.01.13-.01.13-.01.13-.01.13-.02.12-.02.13-.02.12-.03.12-.03.12-.03.12-.03.12-.03.11-.04.12-.04.12-.04.11-.04.11-.04.11-.04.11-.05.11-.04.105-.05.11-.04.1-.05.1-.05.11-.05.1-.05.1-.06.1-.05.1-.05.1-.06.1-.11.19-.11.19-.11.18-.11.184-.11.18-.12.18-.11.17-.12.17-.11.16-.11.16-.11.157-.11.15-.11.15-.1.14-.2.27-.08.11-.09.12-.1.11-.1.11-.11.11-.1.1-.07.06-.06.05-.06.05-.06.05-.07.05-.06.043-.07.05-.07.04-.08.05-.07.04-.08.04-.08.04-.08.03-.08.03-.08.03-.09.03-.09.02-.08.03-.09.02-.1.02-.09.02-.09.01-.09.01-.1.01-.09.01h-.1l-.09-.01-.09-.01-.09-.01-.1-.01-.09-.02-.08-.02-.09-.02-.09-.03-.08-.02-.08-.03-.08-.03-.08-.03-.08-.03-.07-.03-.07-.033-.09-.04-.12-.07-.13-.08-.12-.09-.12-.084-.11-.09-.11-.09-.1-.09-.09-.1-.1-.09-.09-.1-.08-.1-.08-.1-.08-.1-.08-.1-.08-.11-.07-.1-.07-.11-.07-.11-.07-.11-.07-.11-.07-.11-.06-.12-.07-.11-.06-.12-.06-.12-.07-.13-.06-.128-.06-.13-.06-.13-.06-.13-.06-.13-.05-.13-.06-.14-.06-.14-.06-.14-.06-.14-.05-.146-.06-.15-.05-.15-.06-.15-.05-.15-.06-.15-.05-.15-.06-.15-.03-.1-.07.07-.1.1-.1.1-.1.1-.11.1-.1.1-.1.09-.11.09-.1.1-.11.1-.1.09-.11.09-.1.09-.11.09-.1.09-.11.08-.11.086-.1.08-.11.08-.11.08-.1.08-.11.07-.11.07-.11.07-.11.08-.1.07-.11.07-.11.07-.11.06-.11.06-.11.07-.11.06-.1.066-.11.06-.11.057-.11.06-.11.06-.11.05-.11.05-.11.05-.11.05-.11.05-.11.05-.11.04-.11.05-.11.04-.11.04-.11.04-.11.04-.11.04-.11.03-.11.03-.11.03-.12.03-.11.03-.11.03-.11.03-.11.03-.11.026-.11.02-.11.02-.11.02-.11.02-.11.02-.11.02-.12.013-.11.01-.11.01-.11.01h-.44l-.12-.006-.11-.01h-.11l-.11-.01-.11-.01-.11-.02-.11-.01-.11-.02-.11-.02-.11-.02-.11-.02-.11-.02-.11-.03-.11-.03-.1-.03-.11-.04-.11-.04-.1-.04-.11-.05-.1-.05-.11-.05-.1-.05-.1-.05-.1-.06-.1-.06-.1-.07-.09-.065-.1-.07-.09-.07-.09-.07-.1-.08-.09-.08-.09-.08-.09-.08-.09-.09-.09-.08-.08-.09-.09-.08-.08-.09-.09-.09-.08-.09-.08-.09-.08-.09-.08-.09-.08-.1-.08-.1-.08-.1-.07-.1-.08-.1-.07-.1-.08-.11-.07-.1-.08-.11-.07-.1-.07-.11-.07-.11-.07-.11-.07-.11-.07-.11-.07-.11-.07-.12-.07-.11-.06-.12-.07-.12-.07-.12-.06-.12-.07-.12-.06-.12-.06-.12-.07-.12-.06-.12-.06-.12-.13-.25-.12-.26-.12-.26-.12-.26-.11-.26-.12-.27-.11-.27-.11-.27-.11-.27-.11-.28-.11-.28-.1-.28-.11-.284-.1-.28-.1-.29-.1-.29-.1-.3-.1-.3-.09-.3-.09-.3-.1-.3-.09-.31-.09-.3-.09-.3-.08-.31-.09-.31-.08-.31-.09-.31-.08-.32-.08-.32-.08-.31-.08-.31-.07-.32-.08-.31-.07-.32-.07-.314-.08-.32-.06-.32-.07-.31-.07-.32-.07-.31-.05-.256-.01.07-.19.78-.19.78-.19.78-.19.78-.19.775-.2.77-.19.76-.2.75-.2.74-.1.37-.1.37-.1.36-.09.36-.1.35-.1.35-.1.34-.1.34-.1.34-.09.33-.1.33-.1.32-.09.32-.1.31-.09.31-.1.3-.09.3-.1.29-.09.29-.1.27-.09.27-.09.26-.09.26-.09.25-.09.24-.09.23-.09.23-.09.23-.09.22-.09.21-.09.2-.09.19-.05.1-.04.09-.05.09-.04.09-.05.09-.05.09-.05.087-.04.09-.05.08-.06.08-.05.08-.05.085-.06.08-.06.09-.06.08-.07.09-.07.09-.08.09-.08.08-.09.09-.11.09-.11.09-.13.09-.15.09-.17.083-.19.08-.21.07-.21.04-.15.02-.13.01h-.13l-.14-.01-.14-.02-.13-.02-.13-.03-.07-.022-.3-.12-.27-.17-.24-.21-.21-.24-.16-.28-.03-.05-.07-.15-.13-.25-.08-.15-.09-.18-.11-.2-.12-.22-.13-.24-.14-.255-.15-.27-.16-.28-.18-.29-.18-.31-.2-.33-.1-.17-.1-.16-.1-.17-.11-.176-.11-.17-.11-.18-.12-.18-.11-.18-.12-.18-.12-.19-.13-.19-.12-.18-.13-.19-.13-.19-.13-.19-.13-.19-.14-.19-.13-.19-.14-.19-.14-.19-.14-.19-.15-.19-.14-.19-.15-.19-.15-.19-.15-.19-.15-.19-.15-.19-.15-.19-.16-.19-.16-.19-.15-.19-.16-.18-.16-.18-.16-.18-.17-.18-.16-.17-.16-.17-.17-.17-.17-.16-.16-.17-.17-.16-.17-.16-.17-.16-.08-.07-.09-.07-.08-.07-.09-.07-.08-.07-.09-.08-.08-.07-.09-.07-.08-.07-.09-.07-.08-.07-.09-.06-.08-.06-.09-.06-.08-.06-.09-.06-.08-.06-.09-.06-.08-.06-.09-.06-.08-.05-.09-.05-.08-.05-.09-.05-.08-.05-.09-.05-.08-.05-.08-.05-.09-.04-.08-.05-.09-.048-.08-.05-.08-.05-.08-.05-.09-.04-.08-.04-.08-.04-.08-.03-.08-.036-.09-.04-.08-.03-.08-.03-.08-.03-.08-.03-.08-.02-.08-.03-.07-.03-.08-.03-.08-.02-.08-.02-.08-.02-.07-.02-.08-.02-.05-.01-.16.07-.21.1-.21.096-.21.1-.14.067-.03.36-.05.555-.04.56-.05.55-.04.54-.04.53-.03.53-.04.522-.03.52-.03.51-.03.5-.03.49-.02.48-.02.47-.02.45-.02.44-.01.43-.02.41-.01.4-.01.385v1.76l.01.14v.12l.01.12v.113l.01.11v.1l.01.1v.34l-.07.34-.13.32-.17.3-.23.26-.27.22-.3.17-.33.11-.35.06h-.35l-.34-.07-.32-.127-.3-.18-.27-.23-.22-.27-.17-.3-.11-.33-.06-.34-.72-9.53-.05.06-.1.14-.09.14-.1.15-.1.15-.1.14-.09.15-.1.15-.1.15-.09.15-.1.15-.2.31-.19.32-.19.32-.19.32-.19.32-.19.32-.38.64-.18.31-.19.31-.19.3-.18.31-.18.3-.19.29-.18.28-.09.14-.1.14-.09.14-.09.14-.09.14-.1.13-.09.13-.09.13-.1.13-.09.13-.1.12-.09.13-.1.12-.1.12-.1.12-.1.11-.1.11-.11.11-.11.11-.11.1-.12.11-.11.1-.07.05-.06.05-.06.05-.07.05-.06.04-.07.05-.07.05-.08.04-.07.04-.08.05-.08.04-.08.04-.08.04-.08.04-.09.04-.09.03-.09.03-.1.03-.1.03-.1.02-.11.02-.1.02-.11.01-.11.01-.11.01h-.23l-.12-.01-.11-.02-.12-.02-.11-.02-.12-.02-.11-.03-.11-.03-.11-.04-.11-.04-.1-.05-.1-.05-.1-.05-.09-.06-.09-.06-.09-.06-.09-.065-.08-.06-.08-.07-.07-.07-.07-.07-.07-.07-.07-.07-.07-.08-.06-.07-.06-.08-.06-.08-.05-.08-.05-.08-.06-.08-.05-.08-.05-.08-.04-.08-.05-.08-.04-.08-.05-.08-.04-.08-.04-.09-.04-.09-.04-.08-.04-.09-.04-.09-.04-.09-.03-.09-.04-.1-.03-.1-.06-.15-.05-.16-.05-.16-.05-.16-.05-.16-.04-.16-.05-.16-.03-.16-.04-.16-.03-.16-.03-.17-.03-.16-.03-.16-.02-.16-.03-.16-.02-.16-.02-.16-.01-.16-.02-.165-.01-.17-.01-.16-.01-.165-.01-.16v-.18l-.01-.17v-.83l.01-.16v-.17l.01-.17.01-.17.01-.17.01-.17.01-.17.01-.17.01-.16.02-.17v-.01l-.04.06-.09.15-.09.15-.09.15-.1.15-.09.15-.1.15-.1.16-.09.15-.11.15-.1.15-.1.15-.1.15-.11.15-.1.15-.11.15-.11.15-.11.15-.11.16-.11.15-.11.15-.11.15-.12.144-.12.15-.11.15-.12.144-.12.15-.12.14-.13.15-.12.14-.13.15-.12.14-.13.14-.13.15-.13.14-.13.14-.14.14-.13.14-.14.14-.13.14-.14.14-.14.14-.14.14-.15.14-.14.14-.15.14-.14.136-.15.14-.15.136-.15.14-.16.13-.15.13-.16.13-.15.13-.16.12-.16.13-.16.12-.17.13-.16.13-.17.12-.16.12-.17.12-.17.12-.17.12-.18.12-.17.114-.18.12-.18.12-.17.11-.19.11-.18.11-.18.11-.19.11-.18.11-.19.1-.19.11-.19.1-.2.1-.19.1-.21.11-.21.1-.21.1-.21.1-.2.09-.2.09-.21.09-.2.08-.2.08-.19.08-.2.07-.19.07-.2.07-.19.07-.19.06-.19.06-.18.06-.19.05-.19.05-.18.05-.18.05-.19.04-.18.037-.18.03-.18.03-.17.03-.18.02-.18.02-.17.01-.18.02-.17.01h-.85l-.17-.01-.16-.02-.17-.02-.16-.03-.16-.03-.16-.03-.16-.04-.16-.04-.16-.05-.15-.047-.16-.05-.15-.05-.15-.06-.15-.06-.14-.07-.15-.07-.14-.07-.14-.07-.13-.08-.14-.08-.13-.086-.13-.09-.12-.09-.13-.09-.12-.1-.12-.1-.11-.1-.11-.104-.12-.11-.1-.11-.11-.11-.1-.11-.1-.12-.09-.12-.09-.12-.09-.12-.09-.12-.09-.128-.08-.13-.08-.12-.08-.13-.07-.13-.08-.13-.07-.13-.07-.14-.06-.14-.07-.14-.06-.14-.06-.14-.06-.14-.05-.14-.05-.14-.06-.14-.05-.14-.05-.15-.04-.15-.05-.15-.04-.14-.04-.15-.04-.15-.04-.15-.04-.15-.03-.15-.04-.15-.03-.16-.03-.15-.03-.15-.03-.15-.02-.15-.03-.16-.02-.16-.03-.16-.02-.16-.02-.16-.02-.16-.02-.16-.01-.16-.02-.16-.01-.17-.02-.16-.01-.16-.01-.16-.01-.16-.01-.17-.01-.165-.01-.17-.01-.17V29l-.01-.17v-.17l-.09.123-.08.12-.09.12-.08.12-.08.12-.08.116-.08.11-.08.12-.07.11-.08.11-.06.11-.07.11-.07.11-.03.06v.29l.01.47v3.38l-.01.51-.01.41v.3l-.01.24-.04.34-.09.33-.15.31-.21.27-.24.24-.29.19-.31.14-.33.08-.35.03-.34-.03-.33-.09-.31-.15-.28-.2-.25-.24-.05-.06-.05-.07-.06-.06-.05-.07-.05-.07-.05-.07-.05-.07-.05-.07-.04-.07-.05-.07-.05-.07-.04-.07-.04-.08-.05-.07-.04-.08-.04-.07-.04-.08-.04-.07-.03-.07-.04-.08-.03-.08-.04-.08-.03-.07-.03-.08-.03-.08-.03-.08-.03-.08-.02-.08-.03-.08-.02-.08-.03-.07-.02-.08-.02-.08-.02-.09-.03-.15-.04-.16-.02-.16-.03-.16-.02-.16-.01-.16-.01-.16-.01-.16V33l.01-.16.01-.16.01-.16.01-.16.02-.154.03-.157.02-.16.03-.16.03-.16.04-.16.03-.15.04-.16.05-.16.04-.15.05-.15.05-.15.05-.15.06-.15.05-.15.06-.15.07-.15.06-.15.07-.15.07-.15.02-.05-.01-.18-.01-.52-.01-.53-.02-.54-.01-.56-.03-.56-.02-.57-.02-.58-.03-.59-.03-.6-.04-.6-.03-.61-.04-.62-.02-.31-.03-.31-.02-.31-.02-.31-.03-.31-.02-.32-.03-.31-.03-.32-.02-.31-.03-.31-.03-.31-.03-.32-.04-.31-.03-.31-.03-.31-.04-.31-.03-.31-.04-.31-.04-.3-.04-.31-.04-.31-.04-.31-.04-.3-.05-.31-.04-.3-.05-.3-.04-.3-.05-.3-.05-.29-.05-.3-.05-.29-.06-.29-.05-.29-.05-.29-.06-.28-.06-.28-.06-.28-.06-.28-.06-.27-.06-.27-.06-.27-.07-.26-.06-.26-.07-.25-.07-.25-.07-.24-.07-.24-.07-.24-.04-.13-.02.08-.04.25-.05.26-.04.26-.05.27-.04.28-.05.28-.04.29-.04.29-.05.3-.04.3-.04.3-.04.31-.04.31-.04.32-.04.32-.03.33-.04.32-.04.33-.04.33-.03.33-.07.68-.07.68-.07.69-.06.69-.07.69-.06.69-.06.69-.06.68-.12 1.35-.11 1.32-.11 1.27-.05.61-.05.6-.05.58-.05.55-.05.53-.06.51-.05.48-.02.23-.03.22-.02.22-.03.22-.03.2-.02.2-.03.19-.03.19-.02.18-.03.17-.03.17-.03.16-.03.16-.04.15-.03.15-.04.14-.03.09-.02.08-.03.08-.03.09-.04.09-.04.09-.05.11-.06.11-.08.12-.1.14-.13.16-.23.22-.17.11-.29.16-.31.1-.24.05-.24.01-.24-.01h-.01l-.31-.06-.29-.11-.21-.11-.19-.13-.13-.1-.22-.24-.16-.25-.09-.19-.06-.13-.04-.1-.03-.1-.03-.14-.04-.14-.03-.14-.03-.15-.03-.16-.03-.17-.07-.37-.08-.42-.08-.48-.1-.53-.1-.58-.12-.63-.12-.68-.07-.36-.07-.37-.07-.38-.08-.39-.08-.4-.08-.41-.09-.42-.08-.43-.1-.44-.09-.45-.1-.46-.1-.464-.11-.47-.11-.48-.11-.48-.11-.49-.12-.5-.13-.51-.12-.51-.13-.52-.14-.53-.14-.53-.14-.53-.15-.54-.15-.54-.15-.55-.08-.27-.08-.28-.08-.28-.08-.28-.09-.28-.08-.28-.08-.28-.09-.28-.09-.28-.08-.28-.09-.29-.09-.28-.1-.28-.09-.29-.09-.28-.1-.28-.09-.29-.1-.28-.1-.29-.1-.29-.1-.29-.1-.29-.07-.18-.03.19-.04.3-.05.31-.04.32-.05.32-.04.34-.04.34-.04.35-.04.36-.04.37-.04.37-.04.38-.03.38-.04.39-.03.4-.04.4-.03.4-.03.41-.03.41-.03.41-.03.42-.03.42-.02.43-.03.43-.03.43-.02.43-.03.43-.02.44-.02.43-.02.43-.02.43-.04.87-.04.87-.03.87-.03.86-.03.85-.02.84-.03.83-.02.813-.02.79-.01.78-.02.75-.01.73-.01.7-.01.67-.01.64-.01.61v.57l-.01.53-.01.95v1.81l-.59 1.4-1.4.59h-.02l-1.4-.59-.59-1.41V34l.01-.955.01-.54v-.578l.01-.615.01-.648.01-.68.01-.708.01-.736.02-.76.01-.785.02-.803.02-.822.03-.838.02-.852.03-.863.03-.872.04-.88.03-.883.04-.886.02-.444.02-.443.03-.45.02-.44.03-.44.02-.44.03-.44.02-.44.03-.44.03-.43.03-.43.03-.43.03-.43.03-.42.04-.42.03-.41.04-.41.03-.4.04-.4.04-.39.04-.39.04-.38.04-.38.04-.37.05-.37.05-.36.04-.35.05-.35.05-.34.05-.33.05-.33.06-.32.05-.31.03-.16.03-.15.03-.15.03-.15.03-.15.03-.15.04-.14.03-.14.03-.14.04-.14.03-.13.03-.13.04-.13.04-.13.03-.12.04-.12.04-.12.04-.12.04-.12.04-.12.05-.12.04-.11.05-.12.05-.12.05-.11.06-.11.05-.11.06-.11.07-.11.07-.11.07-.11.08-.12.09-.11.09-.11.1-.11.12-.11.11-.1.08-.07.07-.05.08-.05.08-.05.08-.05.09-.05.09-.04.09-.04.1-.04.1-.04.11-.04.1-.03.11-.03.11-.02.12-.01.11-.01.12-.01.11.01.11.01.11.02.11.02.11.02.1.02.1.03.1.04.1.04.09.04.08.04.09.05.08.04.07.05.08.05.07.05.07.05.06.05.07.06.11.09.11.1.1.1.09.11.09.11.09.11.08.11.08.11.07.12.08.12.07.12.07.12.06.12.07.13.07.13.06.13.06.14.07.14.06.14.06.15.07.15.06.16.06.16.12.3.11.3.11.3.11.3.11.3.11.3.1.3.11.3.1.3.1.3.1.3.11.29.09.3.1.3.1.3.09.3.1.29.09.29.09.29.09.29.09.29.09.29.09.29.08.29.09.29.08.29.08.28.09.29.16.57.15.56.15.56.15.55.14.55.14.54.14.54.13.53.07.29.03-.3.06-.7.07-.7.07-.7.07-.69.07-.69.04-.35.03-.34.04-.34.04-.34.04-.34.04-.33.04-.33.04-.33.05-.32.04-.32.04-.32.05-.31.04-.3.05-.31.05-.3.04-.29.05-.3.05-.29.05-.28.05-.27.06-.27.05-.27.05-.26.06-.26.06-.25.06-.25.06-.24.06-.24.06-.22.03-.11.04-.11.03-.11.04-.11.03-.11.04-.11.03-.1.04-.11.04-.1.04-.1.04-.1.04-.1.04-.1.05-.1.04-.1.05-.1.05-.1.05-.098.06-.1.06-.1.06-.09.06-.1.07-.09.08-.1.07-.1.09-.1.09-.1.1-.09.11-.09.12-.09.13-.09.14-.084.15-.08.16-.07.17-.06.18-.05.17-.03.12-.02.1-.01.1-.01h.2l.1.01.09.01.12.014.17.03.18.05.17.06.15.07.15.08.14.08.13.08.12.08.11.09.1.1.1.09.09.1.09.1.08.09.08.1.07.1.07.1.07.1.07.1.06.11.06.1.07.11.06.11.06.11.05.12.06.12.06.12.05.12.06.13.05.12.06.12.05.12.05.12.05.13.05.13.05.13.05.13.09.25.09.26.09.26.09.26.09.27.08.27.09.28.08.28.08.28.07.28.08.29.07.28.07.29.07.29.07.29.07.3.06.3.07.3.06.3.06.3.06.3.06.31.05.31.06.31.05.316.06.31.05.32.05.32.05.32.04.31.05.32.04.32.05.32.04.32.04.33.04.32.04.32.04.32.03.32.04.33.03.32.03.33.04.32.03.33.03.33.03.33.03.32.02.32.03.32.02.32.03.32.02.32.02.32.03.32.04.63.04.62.03.62v.02l.03-.03.12-.14.13-.14.13-.14.13-.15.14-.142.26-.28.27-.29.28-.285.16-.17.02-.12.04-.35.05-.35.05-.35.05-.35.05-.35.05-.35.05-.35.06-.34.05-.34.06-.34.06-.34.05-.33.06-.33.06-.33.06-.33.06-.33.06-.32.06-.32.06-.31.06-.317.13-.61.12-.59.11-.574.12-.56.11-.53.11-.51.11-.49.19-.9.09-.41.08-.378.07-.35.07-.32.02-.1.02-.11.03-.11.02-.11.03-.11.03-.11.03-.11.04-.1.03-.104.04-.11.03-.1.04-.1.04-.1.04-.1.04-.1.05-.1.04-.1.05-.1.05-.1.05-.1.05-.1.05-.09.05-.09.06-.09.05-.09.06-.09.06-.09.06-.09.06-.09.06-.08.07-.08.06-.08.07-.08.06-.08.07-.08.07-.07.07-.07.07-.07.07-.07.07-.07.08-.07.07-.07.08-.07.07-.07.08-.06.08-.06.08-.06.07-.06.08-.05.08-.06.09-.06.08-.05.08-.05.08-.06.09-.05.08-.05.08-.05.09-.04.08-.044.09-.05.08-.04.09-.04.08-.04.09-.04.09-.04.09-.04.08-.04.09-.03.09-.03.09-.03.09-.03.09-.03.08-.03.09-.03.09-.03.09-.03.09-.03.1-.03.17-.04.18-.04.18-.04.18-.03.19-.03.18-.02.18-.02.18-.02.18-.02.19-.01.18-.01.18-.01.18-.01.18-.003h.37l.18.01.18.01.18.01.18.01.18.02.18.015.18.02.17.02.18.02.18.02.18.02.17.03.18.03.17.03.17.04.18.03.17.03.17.04.17.04.16.04.17.04.17.05.16.04.17.05.16.045.16.05.16.05.16.05.16.05.15.05.16.056.15.053.15.06.15.06.15.06.14.06.15.06.14.06.14.06.14.06.13.06.14.066.13.07.13.07.13.07.13.07.12.07.13.07.12.06.12.07.11.07.12.07.11.07.11.07.11.08.11.08.1.08.11.08.1.09.1.09.1.09.1.09.09.09.09.1.1.11.09.12.09.12.08.12.05.08.04.07.04.08.04.08.04.08.04.08.03.09.03.09.04.1.04.15.04.24.02.26-.01.24-.03.21-.05.18-.05.16-.05.14-.06.12-.06.11-.05.1-.06.09-.06.08-.05.08-.06.07-.05.07-.06.07-.06.07-.06.07-.06.06-.06.07-.12.13-.13.13-.13.13-.14.13-.14.14-.15.14-.16.14-.16.147-.17.15-.17.15-.18.155-.19.16-.19.16-.2.17-.2.17-.21.17-.44.35-.45.36-.48.38-.49.39-.51.4-1.06.85-.55.44-.57.45-.57.46-.58.47-.59.48-.29.24-.3.25-.3.25-.3.25-.29.25-.3.25-.3.26-.3.25-.3.254-.3.25-.3.26-.29.26-.3.26-.3.26-.29.26-.29.26-.29.26-.29.266-.29.26-.28.26-.28.264-.28.26-.28.26-.2.2-.02.2-.03.33-.03.33-.03.33-.02.32-.02.33-.02.32-.02.32-.01.32-.01.32-.01.32v.31l-.01.157v.3l.01.15v.46l.01.14V29l.01.15v.14l.01.14.01.14.01.14.01.14.01.14.01.137.01.13.01.132.02.13.01.13.02.13.02.13.01.12.02.12.02.13.02.12.02.12.02.12.03.12.02.12.02.12.03.11.02.11.03.11.03.11.03.1.02.11.03.1.04.1.03.1.03.1.03.09.03.09.04.09.03.09.04.08.03.08.04.08.03.08.04.08.04.07.04.07.04.07.03.07.04.06.04.06.04.06.04.06.04.05.04.06.04.05.05.05.04.04.04.05.04.04.04.04.04.04.04.04.05.04.04.03.04.03.05.03.04.03.04.03.05.03.04.03.05.02.05.03.05.02.05.02.05.02.05.02.05.02.06.02.05.02.06.02.06.02.06.02.06.01.07.01.07.01.07.01.07.01.08.01.08.01h.34l.09-.01.09-.01.1-.007.1-.01.1-.01.11-.01.11-.01.11-.02.11-.02.12-.03.12-.024.12-.03.13-.03.13-.03.13-.03.13-.04.14-.05.14-.04.14-.05.15-.05.15-.05.15-.06.16-.06.15-.07.16-.06.16-.07.17-.07.17-.08.17-.08.17-.08.18-.085.18-.09.16-.08.16-.09.16-.09.16-.09.16-.09.16-.09.15-.09.16-.09.15-.1.15-.1.15-.09.15-.1.15-.09.15-.1.14-.1.15-.1.14-.1.14-.11.14-.1.14-.1.14-.11.14-.103.13-.11.14-.11.13-.11.13-.11.13-.11.13-.11.13-.11.13-.11.13-.12.12-.11.13-.12.12-.12.12-.11.12-.12.12-.12.12-.12.12-.12.12-.12.11-.12.12-.12.11-.12.11-.12.11-.13.12-.12.1-.12.11-.127.11-.12.11-.12.1-.12.11-.13.1-.13.1-.13.1-.13.11-.13.09-.13.1-.13.1-.13.1-.13.09-.13.1-.13.09-.13.09-.137.1-.13.09-.14.09-.13.08-.13.09-.13.09-.13.09-.13.08-.134.09-.13.08-.13.08-.14.08-.13.08-.13.08-.14.08-.14.08-.14.08-.14.08-.135.07-.14.08-.14.07-.14.07-.14.08-.14.07-.13.07-.14.07-.13.06-.13.07-.14.07-.13.07-.13.13-.27.12-.27.13-.27.12-.27.12-.27.11-.27.12-.27.1-.27.11-.264.1-.27.1-.26.1-.26.1-.26.09-.26.09-.26.08-.25.09-.25.08-.25.08-.25.08-.25.07-.24.07-.24.07-.24.07-.24.07-.23.06-.23.06-.227.06-.22.06-.22.05-.22.05-.21.05-.21.05-.2.05-.2.04-.2.09-.37.08-.36.07-.34.07-.32.06-.3.11-.54.05-.24.05-.23.04-.2.03-.1.02-.09.03-.1.03-.1.03-.11.04-.12.06-.15.08-.17.09-.15.11-.16.17-.19.26-.23.18-.1.24-.12.25-.08h.01l.31-.06h.32l.31.05.3.09.01.01.23.11.22.14.16.12.23.25.14.21.09.17.06.13.05.13.05.15.04.14.02.13.02.11.02.11.01.11.02.11.01.12.02.13.03.26.01.19.02.183.01.18.01.18.01.18.01.18.01.18v.19l.01.186v.93l-.01.18v.2l-.01.18-.01.184-.01.19-.01.18-.01.18-.01.18-.02.18-.01.18-.02.19-.01.18-.02.18-.02.18-.02.18-.02.18-.04.36-.04.36-.05.36-.05.36-.05.36-.05.36-.06.36-.06.35-.05.35-.06.35-.06.35-.11.68-.12.67-.11.67-.05.33-.06.326-.05.32-.05.32-.05.32-.04.316-.05.31-.04.31-.03.304-.04.3-.01.15-.02.15-.01.15-.02.15-.01.15-.01.14-.01.15-.01.14-.01.14-.01.14v.14l-.01.14v.14l-.01.14v.78l.01.12v.12l.01.124.01.12.01.12.01.12.01.12.01.12.02.12.01.11.02.11.02.11.02.11.02.11.02.11.02.1.03.11.02.1.03.1.03.1.01.01.04-.06.07-.1.07-.1.07-.11.08-.11.07-.11.08-.12.08-.12.08-.12.08-.12.17-.26.16-.27.17-.28.18-.29.18-.297.18-.3.18-.31.38-.63.2-.32.19-.33.2-.33.2-.33.21-.33.2-.34.11-.17.1-.16.11-.17.11-.16.11-.16.11-.16.1-.16.12-.16.11-.16.11-.16.11-.16.12-.16.11-.16.12-.15.12-.15.12-.15.12-.15.12-.15.12-.15.12-.15.13-.15.12-.14.13-.15.13-.14.13-.14.13-.135.14-.13.13-.13.14-.13.14-.13.15-.125.14-.12.07-.06.08-.06.07-.06.08-.06.07-.05.08-.05.08-.05.08-.05.08-.06.08-.05.08-.05.08-.05.08-.05.08-.05.09-.04.01-.003.07-.04.13-.08.14-.08.13-.07.14-.074.13-.07.14-.07.03-.02.03-.28.06-.57.06-.57.07-.57.07-.56.06-.56.07-.56.07-.55.07-.55.08-.54.07-.53.08-.53.07-.51.08-.5.08-.49.08-.49.05-.24.04-.23.04-.24.04-.23.04-.23.05-.23.04-.22.04-.22.05-.22.04-.21.05-.21.04-.21.05-.2.04-.2.05-.2.05-.19.04-.19.05-.19.05-.18.05-.18.05-.17.05-.17.05-.16.05-.164.05-.16.05-.16.06-.15.05-.15.03-.08.04-.08.03-.08.04-.08.06-.15.08-.15.07-.15.08-.148.09-.15.08-.14.09-.14.09-.14.1-.13.1-.14.09-.13.11-.13.1-.13.11-.13.11-.12.11-.12.11-.12.12-.12.12-.12.12-.11.12-.12.12-.11.13-.11.13-.11.13-.1.13-.1.13-.1.13-.1.14-.1.14-.1.13-.09.14-.09.15-.09.14-.09.14-.08.15-.08.14-.08.15-.08.15-.08.15-.08.15-.07.15-.08.16-.07.15-.07.16-.07.15-.07.16-.06.16-.06.16-.06.15-.05.16-.05.16-.05.17-.05.16-.05.16-.046.17-.04.16-.04.16-.04.17-.04.16-.03.17-.03.17-.03.16-.02.17-.02.17-.01.17-.01.17-.01.16-.01h.17l.17-.01h.34l.17.01.17.01.17.01.17.02.17.02.17.03.16.03.09.02.09.02.08.02.09.02.08.02.08.03.09.02.08.025.08.02.09.03.08.03.08.03.09.03.08.03.08.04.08.03.08.04.08.04.08.03.08.04.08.04.08.04.08.047.08.04.08.05.08.046.07.05.08.05.08.05.07.05.08.06.07.05.07.06.08.06.07.06.07.06.07.06.07.06.07.06.06.066.07.06.06.07.07.07.06.07.07.07.06.07.06.07.06.08.06.08.06.07.05.08.06.08.05.08.05.08.05.09.06.09.05.09.04.09.05.08.05.09.04.09.05.09.04.09.04.09.04.09.04.1.03.09.04.09.04.09.03.1.03.1.03.094.04.1.03.1.02.1.03.1.03.1.02.1.02.1.02.1.03.1.01.1.02.11.02.11.02.1.01.11.01.11.02.11.01.11.01.11.01.11.01.11v.11l.01.12.01.16v.64l-.01.16-.01.16-.01.16-.02.16-.01.16-.02.15-.02.15-.03.16-.02.15-.03.16-.03.15-.03.15-.04.15-.03.15-.04.15-.04.14-.04.15-.05.144-.05.15-.04.15-.05.15-.06.144-.05.14-.06.14-.05.14-.06.14-.06.14-.07.14-.06.14-.07.13-.06.14-.07.14-.07.13-.07.13-.08.14-.07.13-.08.13-.08.13-.08.13-.08.13-.08.13-.08.13-.08.12-.09.13-.08.12-.09.12-.09.13-.09.12-.09.12-.09.12-.1.12-.09.12-.09.12-.1.12-.1.12-.09.12-.1.11-.1.11-.1.12-.11.11-.1.11-.1.11-.11.11-.1.11-.11.11-.1.11-.11.11-.11.11-.11.11-.11.11-.11.11-.11.11-.11.1-.11.11-.11.1-.11.1-.12.1-.11.1-.12.1-.11.1-.12.1-.11.1-.12.1-.23.19-.24.2-.24.19-.24.19-.24.19-.24.18-.24.18-.24.17-.25.17-.24.17-.24.17-.25.17-.24.166-.25.16-.14.09.04.03.12.07.11.07.12.07.11.08.11.07.11.08.12.08.11.08.11.08.11.08.11.08.11.09.11.08.1.08.11.09.11.09.1.08.11.09.11.09.1.09.1.09.11.09.1.09.1.09.11.1.2.18.2.19.2.19.2.19.19.2.19.2.19.2.19.2.19.21.19.21.18.2.18.2.18.21.17.202.18.21.17.21.17.2.17.21.17.21.16.21.16.21.16.21.16.21.16.21.15.21.15.21.15.21.15.204.14.2.15.21.13.2.14.2.14.2.13.2.13.2.13.2.13.19.12.19.12.19.12.19.11.19.12.18.11.18.11.18.14.24.04-.11.09-.25.08-.26.09-.27.09-.27.09-.28.09-.28.09-.29.09-.3.09-.303.1-.31.09-.31.09-.32.1-.32.09-.33.1-.333.09-.34.1-.346.1-.35.09-.35.1-.36.1-.36.19-.73.19-.74.2-.75.19-.75.19-.76.19-.77.19-.77.18-.77.18-.77.18-.76.18-.76.17-.75.17-.75.17-.73.16-.72.15-.71.16-.69.14-.68.14-.66.13-.64.13-.62.12-.6.11-.57.11-.54.09-.51.08-.41-.01-.2V6.4l.01-.17v-.2l.01-.166.01-.16.01-.16.01-.15.02-.15.02-.15.02-.15.02-.14.03-.15.04-.14.02-.09.02-.08.02-.08.03-.09.04-.09.03-.09.04-.1.05-.09.04-.09.05-.09.06-.1.08-.11.1-.14.15-.17.24-.2.17-.1.22-.11.25-.09.01-.01.25-.05.25-.02h.2l.38.07.36.15zm21.12 28.383l-.14.002-.14.004h-.15l-.16.01-.15.01-.17.01-.17.01-.09.01.08.26.1.29.04.13.05.13.05.13.05.13.04.13.05.12.05.12.04.12.05.12.05.11.05.11.04.11.05.11.04.1.05.1.04.1.05.09.04.09.04.09.05.08.01.02.05-.08.09-.14.1-.14.09-.15.1-.14.09-.14.09-.15.08-.15.08-.14.09-.15.03-.07.04-.07.04-.07.03-.07.04-.07.03-.07.03-.07.03-.07.03-.06.03-.07.03-.07.02-.06.02-.06.02-.06.03-.06.01-.05.02-.05.02-.05.01-.05.02-.05.01-.05.01-.04v-.04l.01-.04.01-.02-.04-.01-.04-.01-.06-.02-.06-.01-.06-.02-.07-.01-.08-.02-.08-.01-.09-.01-.1-.01-.1-.01h-.22l-.12-.01h-.25zm-37.25-27.25l-.09.002-.09.005-.1.006-.1.01-.09.01-.1.01-.1.015-.1.02-.11.02-.1.02-.1.02-.1.03-.11.03-.1.03-.11.03-.11.03-.1.04-.11.04-.1.04-.11.04-.1.04-.11.04-.11.04-.1.04-.11.05-.1.05-.1.05-.11.05-.1.05-.1.05-.1.05-.1.06-.1.06-.1.06-.1.06-.09.06-.1.06-.09.06-.09.07-.1.06-.08.07-.09.07-.09.07-.08.07-.08.07-.09.07-.07.07-.08.07-.08.07-.07.07-.07.07-.07.07-.07.07-.06.07-.06.07-.06.07-.06.07-.06.07-.05.07-.05.07-.05.07-.04.07-.05.07-.04.07-.04.07-.03.07-.03.07-.04.06-.03.07-.01.03-.01.03-.01.03-.01.03-.04.09-.04.1-.03.11-.04.12-.04.12-.04.13-.04.14-.04.14-.04.15-.04.15-.04.16-.04.16-.04.17-.04.17-.04.17-.04.18-.04.18-.04.19-.05.2-.04.2-.03.2-.04.21-.04.21-.04.22-.04.22-.04.22-.04.23-.04.23-.08.47-.08.47-.07.49-.07.5-.08.5-.07.51-.07.52-.07.53-.07.53-.07.54-.06.55-.07.55-.06.56v.01l.21-.11.21-.11.21-.12.21-.12.22-.12.21-.12.22-.13.22-.13.22-.13.21-.13.22-.14.22-.14.22-.14.22-.14.22-.15.22-.15.22-.15.21-.15.22-.16.21-.16.22-.15.21-.16.21-.16.21-.16.2-.17.21-.17.2-.17.1-.08.1-.09.1-.09.1-.09.1-.09.09-.08.1-.09.1-.09.09-.09.1-.09.09-.09.09-.09.1-.09.09-.09.09-.09.09-.09.08-.09.09-.09.09-.09.09-.09.08-.09.09-.09.08-.09.08-.09.08-.09.08-.09.08-.09.08-.09.08-.09.07-.1.08-.09.07-.09.07-.09.07-.09.07-.1.07-.1.07-.1.07-.09.06-.09.07-.1.06-.09.06-.1.06-.09.06-.1.06-.1.05-.09.06-.09.05-.1.06-.09.05-.09.05-.1.05-.09.04-.09.05-.09.04-.1.05-.1.04-.09.04-.09.04-.1.03-.1.04-.09.03-.1.04-.09.03-.09.03-.1.03-.09.03-.1.02-.1.03-.1.02-.094.02-.09.02-.1.02-.1.02-.09.01-.09.02-.1.01-.1.01-.09.01-.09.01-.1.01-.1V7.6l.01-.1v-.4l-.01-.1v-.2l-.01-.07-.01-.07v-.068l-.01-.067-.01-.066v-.07l-.01-.07-.01-.06-.01-.06-.01-.06-.01-.06-.01-.06-.02-.06-.01-.06-.01-.06-.01-.05-.02-.05-.01-.05-.01-.05-.02-.05-.01-.05-.02-.05-.01-.04-.02-.04-.02-.05-.01-.04-.02-.04-.02-.04-.01-.04-.02-.04-.02-.04-.01-.04-.02-.03-.02-.03-.02-.03-.02-.03-.02-.03-.01-.03-.02-.03-.02-.03-.02-.03-.02-.03-.02-.03-.02-.03-.02-.03-.02-.02-.02-.02-.02-.03-.02-.03-.02-.02-.02-.02-.02-.03-.02-.02-.02-.02-.02-.02-.02-.02-.03-.02-.02-.02-.02-.01-.02-.02-.03-.02-.02-.02-.02-.02-.03-.02-.02-.02-.03-.02-.02-.01-.03-.02-.02-.01-.03-.01-.02-.01-.03-.02-.03-.01-.03-.01-.03-.01-.02-.01-.03-.01-.03-.01-.03-.01-.03-.01-.04-.01-.03-.01-.03-.01-.03-.01-.04-.01-.03-.01-.03-.01-.04-.01-.03-.01-.04-.01-.04-.01-.03-.01-.08-.02-.08-.01-.07-.01-.09-.01-.08-.01-.08-.01h-.36zm-39.78 3.33h-.12l-.13.005-.12.006-.12.008-.11.01-.12.01-.12.013-.11.015-.11.016-.11.02-.1.018-.11.022-.1.023-.11.02-.04.01-.05.01-.05.01-.04.01-.05.01-.05.01-.04.01-.05.01-.04.02-.04.02-.05.01-.04.01-.04.02-.04.02-.04.02-.04.01-.04.02-.04.02-.04.02-.03.02-.04.02-.04.02-.03.02-.04.02-.03.02-.03.02-.04.02-.03.02-.03.02-.03.02-.03.02-.03.03-.04.02-.02.02-.03.02-.03.02-.03.03-.03.03-.02.03-.03.03-.03.03-.02.02-.03.03-.02.03-.03.03-.02.03-.03.03-.02.03-.02.03-.03.04-.02.03-.02.03-.02.03-.02.04-.03.03-.02.04-.02.04-.02.04-.02.03-.02.04-.02.04-.02.04-.02.04-.02.04-.01.04-.02.05-.02.04-.02.05-.01.05-.02.05-.01.05-.02.05-.02.05-.01.05-.01.05-.02.05-.01.06-.01.07-.07.33-.07.36-.09.39-.09.41-.19.9-.1.49-.11.51-.12.53-.11.54-.12.56-.11.58-.12.59-.06.3-.06.31-.06.31-.06.31-.05.31-.03.14.15-.13.31-.26.3-.27.31-.26.31-.26.31-.26.3-.26.31-.25.31-.25.3-.25.3-.25.31-.24.59-.49.59-.48.58-.47.57-.46.56-.44 1.06-.85.51-.4.49-.39.46-.37.45-.35.42-.34.2-.16.19-.16.19-.16.18-.15.17-.14.17-.14.15-.14.05-.04-.01-.01-.09-.04-.1-.04-.09-.05-.1-.05-.11-.05-.1-.04-.11-.04-.1-.04-.11-.05-.12-.04-.11-.04-.12-.05-.12-.04-.12-.04-.12-.04-.12-.04-.12-.04-.13-.04-.12-.04-.13-.04-.13-.04-.13-.03-.13-.03-.13-.03-.13-.03-.13-.03-.13-.03-.14-.03-.13-.03-.13-.02-.14-.03-.13-.02-.13-.02-.14-.02-.13-.01-.13-.02-.14-.02-.13-.01-.13-.01-.13-.01-.13-.01h-.13l-.13-.01h-.38z"/><circle cx="3161" cy="444" r="4" transform="translate(-2286.694 -325.712) scale(.74047)"/></svg>
