<svg xmlns="http://www.w3.org/2000/svg" width="372" height="105" viewBox="0 0 372 105">
  <path fill="none" stroke="#FEA2BB" stroke-linecap="round" stroke-width="20" d="M99.6609223,435.733019 C99.8686255,416.563253 88.7626326,424.791947 100.126268,408.945493 C107.126633,399.183569 113.417545,398.33103 118.8705,408.945493 C124.713349,420.318904 138.075318,470.637307 136.989636,480.188732 C136.848584,481.429656 135.733199,484.986557 135.734516,483.738428 C135.745269,473.545897 134.086854,423.00259 152.629687,416.737921 C166.703287,411.983175 173.058707,450.060855 182.605708,442.152052 C196.011519,431.046582 190.521209,431.750264 205.064357,423.507698 C205.777735,423.103379 207.11563,422.839275 207.556795,423.507698 C209.610426,426.619218 210.171928,430.431507 211.825096,433.751105 C215.02991,440.186446 230.745591,437.829846 234.813388,435.361146 C242.533496,430.675899 248.541101,423.818541 255.767673,418.47051 C256.259128,418.106808 257.520401,417.889345 257.637002,418.47051 C258.508449,422.814023 256.463757,427.703775 258.42479,431.714256 C259.223199,433.34707 262.376698,432.437702 264.11289,431.714256 C269.224646,429.584262 275.865573,420.211181 283.206748,422.90763 C287.28346,424.405026 283.368741,434.884752 288.685661,433.708847 C300.86204,431.015884 314.300203,414.871752 321.630354,406.642417 C323.423914,404.628843 324.474072,400.812874 327.652263,399.851511 C329.178618,399.389808 330.83263,398.752391 332.392347,399.099313 C334.687412,399.609797 336.889513,400.764559 338.614541,402.289814 C350.83041,413.090976 361.945095,424.972328 374.024968,435.910504 C390.839362,451.135731 427.42589,443.426527 447,438.767163" transform="translate(-85 -389)"/>
</svg>
