<svg xmlns="http://www.w3.org/2000/svg" width="222" height="120" viewBox="0 0 222 120">
  <path fill="none" stroke="#F9B5C7" stroke-dasharray="1 1" stroke-linecap="round" stroke-linejoin="round" stroke-width="8" d="M4.07652033,20.350208 C4.07652033,32.540534 1.65434959,44.9739212 4.07652033,56.921186 C4.65571964,59.7780645 9.27556333,59.8598484 12.1648976,60.2458203 C17.7153888,60.9872832 23.5256529,61.5796048 28.9642867,60.2458203 C35.870133,58.5522129 54.1934524,22.873794 56.671531,18.5704126 C57,18 57.0334364,13.8489085 52,14 C48.6443758,14.1007277 46.6497938,15.6241985 46.0162541,18.5704126 L43.0381806,27.4635158 C38.8931627,43.6264078 32.7239087,81.8474622 21.9743311,102.778819 C20.8788793,104.911861 19.368532,107.045351 17.2869491,108.235684 C14.406603,109.882782 10.9802912,111.478293 7.70659813,110.937683 C6.06261193,110.6662 5.90802842,107.992406 5.76233316,106.332536 C4.78535831,95.2021067 1.88760429,68.9198654 18.2502707,65.7555501 C34.5925217,62.5951828 49.4773844,72.13664 56.671531,53.0209082 C58.3574282,48.5412723 56.3677661,35.0685886 59.2443046,38.8941491 C62.1797098,42.7979975 64.5077371,51.4620181 66.2283863,64.886211 C67.8793525,65.5142844 70.0611605,65.1615042 71.4679161,64.0932329 C81.0798247,56.7940786 86.9249576,30.2655963 87,31 C92.1382231,81.2853073 83.788581,49.4599025 109.237172,6.05897939 C122.706083,-16.9113752 102.792874,32.554806 111.152068,36.4447277 C113.467797,37.5223443 125.354939,30.2682096 127.129109,32.9321282 C130.161229,37.484861 123.762791,44.6274911 126.553466,49.3320913 C128.168409,52.0546095 133.289524,49.5122721 135.916482,47.746135 C139.691325,45.2082598 141.031512,40.046151 144.586376,37.2083363 C145.913304,36.1490626 147.077097,39.4061028 145.549698,40.3685011 C137.338008,45.5426023 141.103257,56.1101197 149.408858,57.5731902 C151.180949,57.8853523 153.317407,58.5826024 154.806984,57.5731902 C156.524219,56.409505 153.936945,38.970214 170.572564,55.7346557 C172.163323,57.3377326 175.980103,57.0242564 177.327564,55.2118775 C183.115158,47.4273735 180.682265,28.0791369 190.320658,29.1728243 C205.246967,30.866542 181.744097,80.0715927 178.185155,84.9103781 C177.266821,86.1589573 174.970623,89.158398 174.461094,87.6946125 C168.336719,70.1003713 193.763923,59.014884 204.970195,54.5246298 C216.448014,49.925569 216.024898,50.2216955 216.024898,54.7889558" transform="translate(1 4)"/>
</svg>
