<svg xmlns="http://www.w3.org/2000/svg" width="331" height="73" viewBox="0 0 331 73">
  <path fill="none" stroke="#FEA2BB" stroke-linecap="round" stroke-linejoin="round" stroke-width="20" d="M440,617 C451.09481,614.241625 475.641664,589.400256 473.311995,571.390101 C471.690041,558.851135 452.965079,564.638393 450.503016,571.390101 C448.471561,576.960951 456.86131,602.64915 459.331226,603.257361 C472.530422,606.507631 486.232821,604.702729 499.616127,603.257361 C503.403013,602.848385 506.981715,600.371963 510.222264,597.761237 C513.135951,595.413846 515.571641,592.077519 517.767712,588.633664 C518.974815,586.740698 519.996405,584.439079 520.275777,581.995428 C520.852336,576.952302 520.5699,571.780959 520.275777,566.695787 C520.269541,566.587979 519.22398,563.487643 518.277827,564.723896 C518.043206,565.030454 518.029913,565.741295 518.277827,566.029167 L523.102663,572.895824 C529.734774,580.596851 537.772412,586.42218 541.640377,597.593417 C541.983096,598.583239 542.452605,600.65481 541.640377,600.856594 C534.919528,602.526275 514.450022,600.993033 521.168478,602.679312 C533.420683,605.754519 559.514941,603.406308 573.338345,598.148157 C573.789144,597.976682 574.30354,597.450075 574.330235,596.833563 C574.641386,589.647581 574.525296,582.433709 574.330235,575.240651 C574.251829,572.349337 570.885969,572.595232 569.67898,573.581092 C563.158278,578.907152 570.953399,586.678838 574.517986,587.939073 C580.242207,589.962832 585.982498,592.236125 591.883144,592.97369 C599.486473,593.924085 607.17261,593.589747 614.795801,592.97369 C615.498359,592.916914 616.166776,591.915212 616.283636,591.001798 C616.89686,586.208655 615.323133,580.832117 616.910652,576.443365 C617.866761,573.800169 620.823175,573.595414 622.925756,572.639432 C640.553484,564.624619 640.317334,582.697882 653.982538,585.249282 C659.52764,586.284596 665.221264,586.100218 670.784445,585.249282 C673.404607,584.848506 675.813592,583.078514 678.18111,581.547907 C680.239012,580.217468 682.208727,578.601874 683.994293,576.709081 C685.42894,575.188281 686.359091,572.959053 687.763475,571.390101 C688.015525,571.108516 688.652553,570.976581 688.755365,571.390101 C690.650654,579.013152 691.131576,587.24535 693.537691,594.614602 C694.114651,596.381665 695.845555,597.432634 697.303331,597.570108 C706.471333,598.434688 715.689142,597.867827 724.87787,597.570108 C727.786439,597.47587 730.686169,596.988866 733.56045,596.395365 C736.383569,595.812428 739.216176,595.160342 741.945462,594.045877 C742.81783,593.689658 748.801943,591.950619 751,591.211574" transform="translate(-430 -554)"/>
</svg>
