<svg xmlns="http://www.w3.org/2000/svg" width="333" height="93" viewBox="0 0 333 93">
  <path fill="none" stroke="#FEA2BB" stroke-linecap="round" stroke-width="20" d="M121,826.881797 C130.136012,818.751559 132.881132,790.638983 133.789983,779.032562 C134.257668,773.060027 138.999646,763.998383 133.789983,761.059876 L132.797764,759.510722 C132.288182,759.223292 131.304636,758.986404 131.043496,759.510722 C124.520098,772.608412 126.978301,795.275374 132.281437,810.651521 C132.897275,812.43711 137.78764,820.438868 141.046557,817.602455 C146.3883,812.953245 180.964276,758.31913 181.341846,759.510722 C181.737151,760.75828 164.674204,805.42915 164.088433,819.260705 C164.072826,819.62922 164.948466,819.536712 165.192626,819.260705 C175.225734,807.918973 220.256849,765.836602 220.287622,766.125884 C214.522173,789.685255 212.023348,801.240765 212.791146,800.792415 C230.031046,790.725301 246.323365,779.106771 263.27301,768.556288 C263.642917,768.326035 264.480431,768.131321 264.57938,768.556288 C265.003446,770.377572 264.270091,772.322563 264.57938,774.166907 C265.617256,780.355948 266.852994,786.53182 268.604243,792.557272 C268.918398,793.638172 269.658563,794.770998 270.694435,795.206732 C271.987899,795.75082 273.661387,795.861335 274.902812,795.206732 C285.264545,789.742991 294.875781,782.950135 305.027079,777.103132 C305.404618,776.885675 306.164539,776.700917 306.333449,777.103132 C306.734812,778.058871 306.039124,779.219817 306.333449,780.213909 C306.869673,782.025022 307.386092,784.044941 308.768896,785.328924 C310.099026,786.563997 312.084101,786.917802 313.87307,787.214715 C315.93108,787.556282 318.149471,787.867497 320.131203,787.214715 C322.653274,786.383946 324.839842,784.669159 326.855898,782.938176 C330.568753,779.750323 333.523937,775.743886 337.222876,772.539828 C339.489783,770.57621 342.80472,765.157067 344.675405,767.502738 C352.401366,777.190396 332.938375,808.820184 327.135834,816.751511 C324.474588,820.389092 321.530771,823.829464 318.395598,827.065701 C316.714597,828.80089 314.404945,833.361491 312.747103,831.604069 C300.942681,819.090599 339.821308,801.543589 342.6412,800.62098 C351.704138,797.655777 399.145822,786.936462 396.990904,772.539828 C394.835985,758.143194 376.160029,750.289587 380.469865,774.763865 C384.779701,799.238143 415.014835,797.806317 425.884955,793.327174 C431.925709,790.83802 432.285899,781.770177 434,775.454233" transform="translate(-111 -749)"/>
</svg>
