<svg xmlns="http://www.w3.org/2000/svg" width="204" height="96" viewBox="0 0 204 96">
  <path fill="none" stroke="#F9B5C7" stroke-dasharray="1 1" stroke-linecap="round" stroke-linejoin="round" stroke-width="8" d="M11.6079733,158 C11.4728681,175 11.6079733,152 11.6079733,157 M11.6079733,177 C11.6079733,196.978311 1,223.044 14.7781347,223.044 C28.5562694,223.044 35.5753412,178.37283 37.0784505,174.969534 C37.4980947,174.019387 62.5343675,155.583674 42.2327865,152.789679 C32.6848285,151.475645 27.5221556,150.638147 30.5912912,160.208045 C34.9107398,173.676553 42.7984732,186.435643 46.931553,199.936153 C47.7728151,202.684095 41.0266258,223.745322 58.4412719,217.777016 C83.7103443,209.116859 79.6334549,87.9147273 76.6000467,214.07062 C76.5560789,215.899189 73.0395138,194.305304 77.3492891,192.172228 C82.3452631,189.699525 92.3484455,193.880074 95.1240301,189.934456 C99.9138332,183.125537 94.2450515,174.553626 95.1240301,166.904639 C95.4748316,163.851918 98.3975705,155.070111 98.7798813,158.120758 C104.081176,200.422416 92.1147959,208.062128 102.477148,201.510674 C105.926947,199.329587 103.991227,194.836708 105.673665,191.717985 C140.641637,126.898101 126.087919,152.093768 126.147937,207.88679 C126.14982,209.637336 128.589815,211.083288 128.531206,212.833297 C128.382076,217.286179 98.3976957,196.293038 104.886772,194.22886 C117.361295,190.260708 143.341923,178.27253 155.244145,179.634533 C158.284065,179.982399 179,216.127252 198,194.22886 C210.601958,179.704512 193.865115,170.605179 177,184 C168.437543,190.800581 155.432334,224.296963 155.244145,223.044 C154.610791,218.827127 153.496667,162.619141 152,157 C148.836664,145.123456 152.195674,174.063805 155.244145,172 C157.498777,170.473621 191,157 189,136" transform="translate(-3 -132)"/>
</svg>
