<svg xmlns="http://www.w3.org/2000/svg" width="246" height="96" viewBox="0 0 246 96">
  <path fill="none" stroke="#F9B5C7" stroke-dasharray="1 1" stroke-linecap="round" stroke-linejoin="round" stroke-width="8" d="M4.45748646,267.234775 C4.45748646,292.546586 4.94396939,317.861874 4.45748646,343.170209 C4.28268668,352.26383 1.99645504,324.89675 3.52207938,315.897523 C4.00323374,313.059329 7.38323746,311.046568 10.1690887,309.479079 C14.1698849,307.227989 20.6305243,308.07685 23.3936957,304.716548 C26.5852659,300.83527 25.3277136,295.329517 25.7074234,290.582861 C26.3704106,282.295028 26.1905776,257.367315 26.5172282,265.670065 C27.9762329,302.754806 24.4970855,304.944232 28.5103394,335.56612 C29.6594047,344.333707 27,346.185623 40,346.040268 C53,345.894912 47.8367049,322.036957 52.0806148,311.109341 C53.2829249,308.013521 56.9540929,305.859656 57.9012928,302.698672 C59.7953699,296.377779 60.0221136,289.754136 60.433172,283.235282 C60.8673904,276.349142 68.4333083,293.613446 71,300.144975 C97.6094211,367.858671 54.8230384,320.047443 58.3640383,315.83197 C64.0802761,309.026932 77.7418784,311.104938 85.0578462,305.55448 C89.4102667,302.252398 85.9219883,288.437371 90.6339302,291.349541 L97,295.270775 C111.80027,304.417936 95,351.35287 100,346.040268 C103.12539,342.719477 80.9323246,302.119161 101.29691,294.270775 C102.543192,293.790465 112.954661,291.433708 114.085214,292.093419 C115.654625,293.009216 116.870362,294.62472 117.106281,296.246026 C118.800272,307.887618 118.487325,319.689775 119.800121,331.367911 C119.969156,332.871577 120.509275,334.421443 121.535417,335.645923 C122.120062,336.34357 123.279013,336.589726 124.268921,336.700463 C126.481474,336.947973 128.759172,337.004627 130.962205,336.700463 C132.939541,336.427461 135.05745,336.05778 136.634144,334.993248 C141.585763,331.650078 148.649941,328.953166 150.215726,323.701119 C153.513527,312.639443 136.970248,289.472369 150.215726,289.437118 C163.626732,289.401426 153.918364,312.360815 156.641278,323.684019 C157.428335,326.956983 157.62349,331.055833 160.710134,333.077976 C162.448735,334.216979 164.784939,331.383587 166.120952,329.894405 C169.733608,325.867569 172.628479,321.371188 175.289924,316.826658 C178.450263,311.430247 179.11532,295.457868 183.543322,300.144975 C188.707574,305.611414 181.273153,314.142642 179.196819,320.962165 C176.065419,331.246955 171.826564,341.258006 167.952102,351.35287 C167.284929,353.09118 168.463231,347.602026 169.571711,346.040268 C172.345184,342.132672 175.775982,338.570004 179.401749,335.221257 C183.779816,331.177688 188.504819,327.393718 193.508878,323.931978 C196.087965,322.147801 198.994955,320.680848 202.036617,319.562762 C208.811082,317.072535 215.764118,314.908907 222.840335,313.150019 C228.759213,311.678802 234.900366,310.980136 240.930381,309.895195" transform="translate(1 -260)"/>
</svg>
